<svg xmlns="http://www.w3.org/2000/svg" viewBox="0 0 900 620" role="img" aria-label="GRAIL-V visual banner">
  <defs>
    <linearGradient id="bg" x1="0" x2="1" y1="0" y2="1">
      <stop offset="0" stop-color="#0f172a" />
      <stop offset="1" stop-color="#1f7a8c" />
    </linearGradient>
    <linearGradient id="glow" x1="0" x2="1" y1="0" y2="0">
      <stop offset="0" stop-color="#f15946" stop-opacity="0.9" />
      <stop offset="1" stop-color="#f7b32b" stop-opacity="0.7" />
    </linearGradient>
  </defs>
  <rect width="900" height="620" fill="url(#bg)" rx="48" />
  <g opacity="0.25" stroke="#ffffff" stroke-width="1">
    <path d="M120 90 C240 40, 360 40, 480 100" fill="none" />
    <path d="M120 190 C260 120, 420 140, 560 220" fill="none" />
    <path d="M140 300 C300 240, 460 250, 620 330" fill="none" />
    <path d="M200 430 C360 380, 520 390, 680 460" fill="none" />
  </g>
  <g opacity="0.6">
    <circle cx="680" cy="160" r="110" fill="url(#glow)" />
    <circle cx="230" cy="430" r="130" fill="#1f7a8c" opacity="0.7" />
    <circle cx="760" cy="420" r="70" fill="#f15946" opacity="0.6" />
  </g>
  <g stroke="#ffffff" stroke-opacity="0.4" stroke-width="1">
    <line x1="120" y1="520" x2="780" y2="220" />
    <line x1="180" y1="550" x2="820" y2="300" />
  </g>
  <g fill="#ffffff" opacity="0.85">
    <circle cx="280" cy="300" r="6" />
    <circle cx="360" cy="260" r="6" />
    <circle cx="450" cy="240" r="6" />
    <circle cx="540" cy="260" r="6" />
    <circle cx="620" cy="310" r="6" />
  </g>
  <g opacity="0.7">
    <rect x="110" y="120" width="210" height="130" rx="18" fill="#0f172a" stroke="#f7b32b" stroke-width="2" />
    <rect x="150" y="150" width="140" height="12" rx="6" fill="#f9f6f0" />
    <rect x="150" y="176" width="110" height="10" rx="5" fill="#f9f6f0" opacity="0.7" />
    <rect x="150" y="196" width="160" height="10" rx="5" fill="#f9f6f0" opacity="0.7" />
  </g>
  <g opacity="0.8">
    <rect x="560" y="360" width="220" height="160" rx="20" fill="#0f172a" stroke="#f15946" stroke-width="2" />
    <rect x="590" y="390" width="110" height="12" rx="6" fill="#f9f6f0" />
    <rect x="590" y="418" width="160" height="12" rx="6" fill="#f9f6f0" opacity="0.7" />
    <rect x="590" y="446" width="130" height="12" rx="6" fill="#f9f6f0" opacity="0.7" />
  </g>
</svg>
